<?xml version="1.0" standalone="no"?><svg xmlns="http://www.w3.org/2000/svg" viewBox="0 0 1440 320"><path fill="#ff5500" fill-opacity="1" d="M0,256L10.9,234.7C21.8,213,44,171,65,144C87.3,117,109,107,131,106.7C152.7,107,175,117,196,133.3C218.2,149,240,171,262,160C283.6,149,305,107,327,128C349.1,149,371,235,393,277.3C414.5,320,436,320,458,314.7C480,309,502,299,524,288C545.5,277,567,267,589,261.3C610.9,256,633,256,655,218.7C676.4,181,698,107,720,85.3C741.8,64,764,96,785,122.7C807.3,149,829,171,851,170.7C872.7,171,895,149,916,138.7C938.2,128,960,128,982,133.3C1003.6,139,1025,149,1047,176C1069.1,203,1091,245,1113,245.3C1134.5,245,1156,203,1178,197.3C1200,192,1222,224,1244,197.3C1265.5,171,1287,85,1309,96C1330.9,107,1353,213,1375,229.3C1396.4,245,1418,171,1429,133.3L1440,96L1440,0L1429.1,0C1418.2,0,1396,0,1375,0C1352.7,0,1331,0,1309,0C1287.3,0,1265,0,1244,0C1221.8,0,1200,0,1178,0C1156.4,0,1135,0,1113,0C1090.9,0,1069,0,1047,0C1025.5,0,1004,0,982,0C960,0,938,0,916,0C894.5,0,873,0,851,0C829.1,0,807,0,785,0C763.6,0,742,0,720,0C698.2,0,676,0,655,0C632.7,0,611,0,589,0C567.3,0,545,0,524,0C501.8,0,480,0,458,0C436.4,0,415,0,393,0C370.9,0,349,0,327,0C305.5,0,284,0,262,0C240,0,218,0,196,0C174.5,0,153,0,131,0C109.1,0,87,0,65,0C43.6,0,22,0,11,0L0,0Z"></path></svg>